<?xml version="1.0" encoding="UTF-8" standalone="no"?>
<svg
   xmlns:dc="http://purl.org/dc/elements/1.1/"
   xmlns:cc="http://creativecommons.org/ns#"
   xmlns:rdf="http://www.w3.org/1999/02/22-rdf-syntax-ns#"
   xmlns:svg="http://www.w3.org/2000/svg"
   xmlns="http://www.w3.org/2000/svg"
   xmlns:sodipodi="http://sodipodi.sourceforge.net/DTD/sodipodi-0.dtd"
   xmlns:inkscape="http://www.inkscape.org/namespaces/inkscape"
   version="1.1"
   id="Capa_1"
   x="0px"
   y="0px"
   viewBox="0 0 39.999999 39.999999"
   xml:space="preserve"
   sodipodi:docname="download.svg"
   width="40"
   height="40"
   inkscape:version="1.0.2 (e86c870879, 2021-01-15)"><metadata
   id="metadata73"><rdf:RDF><cc:Work
       rdf:about=""><dc:format>image/svg+xml</dc:format><dc:type
         rdf:resource="http://purl.org/dc/dcmitype/StillImage" /><dc:title /></cc:Work></rdf:RDF></metadata><defs
   id="defs71">
	
	
	
	
	
	
	
	
	
	
	
	
	
	
	
	
	
</defs><sodipodi:namedview
   pagecolor="#ffffff"
   bordercolor="#666666"
   borderopacity="1"
   objecttolerance="10"
   gridtolerance="10"
   guidetolerance="10"
   inkscape:pageopacity="0"
   inkscape:pageshadow="2"
   inkscape:window-width="1600"
   inkscape:window-height="831"
   id="namedview69"
   showgrid="false"
   inkscape:zoom="7.4890386"
   inkscape:cx="2.7951373"
   inkscape:cy="6.0681075"
   inkscape:window-x="0"
   inkscape:window-y="0"
   inkscape:window-maximized="1"
   inkscape:current-layer="Capa_1"
   inkscape:document-rotation="0" />
<path
   d="m 34.613554,25.137951 v 9.445843 H 5.7201444 V 25.137951 H 0.16684947 v 12.22249 c 0,1.532467 1.24142213,2.775268 2.78078553,2.775268 h 34.438428 c 1.537984,0 2.780786,-1.241422 2.780786,-2.775268 v -12.22249 z"
   id="path2"
   style="stroke-width:1.37936;fill:#383838;fill-opacity:1" /><path
   d="m 19.980706,25.416049 -7.950618,-9.607228 c 0,0 -1.209697,-1.142108 0.102072,-1.142108 1.311769,0 4.480154,0 4.480154,0 0,0 0,-0.768303 0,-1.953171 0,-3.3780477 0,-9.5258459 0,-12.0321392 0,0 -0.177937,-0.6814028 0.848306,-0.6814028 1.034518,0 5.565709,0 6.306424,0 0.739336,0 0.722783,0.57381289 0.722783,0.57381289 0,2.43042861 0,8.79064791 0,12.05834711 0,1.059347 0,1.746267 0,1.746267 0,0 2.540778,0 4.135315,0 1.591779,0 0.393117,1.195903 0.393117,1.195903 0,0 -6.764371,8.97962 -7.707852,9.921721 -0.678644,0.682783 -1.329701,-0.08 -1.329701,-0.08 z"
   id="path4"
   style="display:inline;opacity:0.999;stroke-width:1.379;stroke-miterlimit:4;stroke-dasharray:none;fill:#383838;fill-opacity:1" />















</svg>
