<?xml version="1.0" encoding="UTF-8" standalone="no"?>
<svg
   xmlns:dc="http://purl.org/dc/elements/1.1/"
   xmlns:cc="http://creativecommons.org/ns#"
   xmlns:rdf="http://www.w3.org/1999/02/22-rdf-syntax-ns#"
   xmlns:svg="http://www.w3.org/2000/svg"
   xmlns="http://www.w3.org/2000/svg"
   xmlns:sodipodi="http://sodipodi.sourceforge.net/DTD/sodipodi-0.dtd"
   xmlns:inkscape="http://www.inkscape.org/namespaces/inkscape"
   width="50"
   height="50"
   viewBox="0 0 13.229166 13.229168"
   version="1.1"
   id="svg838"
   inkscape:version="1.0.2 (e86c870879, 2021-01-15)"
   sodipodi:docname="folder-closed-plus.svg">
  <defs
     id="defs832" />
  <sodipodi:namedview
     id="base"
     pagecolor="#ffffff"
     bordercolor="#666666"
     borderopacity="1.0"
     inkscape:pageopacity="0.0"
     inkscape:pageshadow="2"
     inkscape:zoom="3.959798"
     inkscape:cx="-7.4619098"
     inkscape:cy="18.782274"
     inkscape:document-units="mm"
     inkscape:current-layer="layer1"
     inkscape:document-rotation="0"
     showgrid="false"
     units="px"
     inkscape:window-width="1600"
     inkscape:window-height="831"
     inkscape:window-x="0"
     inkscape:window-y="0"
     inkscape:window-maximized="1" />
  <metadata
     id="metadata835">
    <rdf:RDF>
      <cc:Work
         rdf:about="">
        <dc:format>image/svg+xml</dc:format>
        <dc:type
           rdf:resource="http://purl.org/dc/dcmitype/StillImage" />
        <dc:title />
      </cc:Work>
    </rdf:RDF>
  </metadata>
  <g
     inkscape:label="Layer 1"
     inkscape:groupmode="layer"
     id="layer1">
    <g
       id="g1427"
       transform="matrix(1.4285714,0,0,1.4285714,-0.18192805,0.00650489)">
      <path
         d="M 4.022619,2.203725 C 4.022704,2.6617763 3.8482686,3.0330966 3.6331956,3.0330966 H 0.22424873 0.12838973 V 0.82143936 c 0,-0.4580514 0.1743572,-0.8293716 0.3894222,-0.8293716 H 3.6331932 c 0.2150732,0 0.3890021,-0.036516 0.3890881,0.4215296 z"
         id="path2"
         style="display:inline;fill:#15466f;fill-opacity:1;stroke:none;stroke-width:0.378872"
         sodipodi:nodetypes="ssccsssss" />
      <path
         d="M 3.9264949,1.8561839 V 0.37543446 h 5.105101 c 0.1967018,0 0.3561705,0.2486065 0.3561705,0.5552808 V 8.7046512 c 0,0.3066639 -0.1594687,0.5552816 -0.3561705,0.5552816 H 0.48351883 c -0.1967074,0 -0.3561691,-0.2486181 -0.3561691,-0.5552816 V 2.5966258 c 0.099207,0.1161778 0.2225343,0.1850266 0.3561691,0.1850266 H 3.3328778 c 0.3278435,0 0.5936171,-0.4143469 0.5936171,-0.9254685 z"
         id="path839"
         style="fill:#2271b1;fill-opacity:1;stroke:none;stroke-width:0.296478" />
    </g>
    <g
       id="g878"
       transform="matrix(0.22345895,0,0,0.22345895,19.871974,1.6459078)"
       style="opacity:0.386103">
      <rect
         style="fill:#000000;stroke-width:1.45667;stroke-linejoin:bevel;paint-order:stroke fill markers"
         id="rect848"
         width="35.521065"
         height="7.9708667"
         x="-39.995827"
         y="-63.313515"
         transform="rotate(-90)"
         ry="2.2107608" />
      <rect
         style="fill:#000000;stroke-width:1.45667;stroke-linejoin:bevel;paint-order:stroke fill markers"
         id="rect856"
         width="35.521065"
         height="7.9708667"
         x="-77.088615"
         y="18.249861"
         ry="2.2107608" />
    </g>
  </g>
</svg>
