<?xml version="1.0" encoding="UTF-8" standalone="no"?>
<svg
   xmlns:dc="http://purl.org/dc/elements/1.1/"
   xmlns:cc="http://creativecommons.org/ns#"
   xmlns:rdf="http://www.w3.org/1999/02/22-rdf-syntax-ns#"
   xmlns:svg="http://www.w3.org/2000/svg"
   xmlns="http://www.w3.org/2000/svg"
   xmlns:sodipodi="http://sodipodi.sourceforge.net/DTD/sodipodi-0.dtd"
   xmlns:inkscape="http://www.inkscape.org/namespaces/inkscape"
   width="49"
   height="61"
   viewBox="0 0 49 61"
   fill="none"
   version="1.1"
   id="svg13"
   sodipodi:docname="jpeg.svg"
   inkscape:version="1.0.2 (e86c870879, 2021-01-15)">
  <metadata
     id="metadata19">
    <rdf:RDF>
      <cc:Work
         rdf:about="">
        <dc:format>image/svg+xml</dc:format>
        <dc:type
           rdf:resource="http://purl.org/dc/dcmitype/StillImage" />
        <dc:title></dc:title>
      </cc:Work>
    </rdf:RDF>
  </metadata>
  <defs
     id="defs17" />
  <sodipodi:namedview
     pagecolor="#ffffff"
     bordercolor="#666666"
     borderopacity="1"
     objecttolerance="10"
     gridtolerance="10"
     guidetolerance="10"
     inkscape:pageopacity="0"
     inkscape:pageshadow="2"
     inkscape:window-width="1600"
     inkscape:window-height="831"
     id="namedview15"
     showgrid="false"
     inkscape:zoom="5.204918"
     inkscape:cx="38.917582"
     inkscape:cy="39.13689"
     inkscape:window-x="0"
     inkscape:window-y="0"
     inkscape:window-maximized="1"
     inkscape:current-layer="svg13"
     inkscape:document-rotation="0"
     showguides="true"
     inkscape:guide-bbox="true">
    <sodipodi:guide
       position="54.371654,21.806299"
       orientation="0,-1"
       id="guide867" />
    <sodipodi:guide
       position="52.450394,7.5889758"
       orientation="0,-1"
       id="guide869" />
  </sodipodi:namedview>
  <path
     d="M5 0.5H44C46.4853 0.5 48.5 2.51472 48.5 5V56C48.5 58.4853 46.4853 60.5 44 60.5H5C2.51472 60.5 0.5 58.4853 0.5 56V5C0.5 2.51472 2.51472 0.5 5 0.5Z"
     fill="#CCCCCC"
     stroke="#383838"
     id="path2" />
  <mask
     id="path-2-inside-1"
     fill="white">
    <path
       fill-rule="evenodd"
       clip-rule="evenodd"
       d="M5 0C2.23858 0 0 2.23858 0 5V56C0 58.7614 2.23858 61 5 61H44C46.7614 61 49 58.7614 49 56V11H39.1058V0H5Z"
       id="path4" />
  </mask>
  <path
     fill-rule="evenodd"
     clip-rule="evenodd"
     d="M 5,0 C 2.23858,0 0,2.23858 0,5 v 51 c 0,2.7614 2.23858,5 5,5 h 39 c 2.7614,0 5,-2.2386 5,-5 V 11 H 39.1058 V 0 Z"
     fill="#B13838"
     id="path7"
     style="opacity:0.997;fill:#f0f0f0;fill-opacity:1" />
  <path
     d="M49 11H50V10H49V11ZM39.1058 11H38.1058V12H39.1058V11ZM39.1058 0H40.1058V-1H39.1058V0ZM1 5C1 2.79086 2.79086 1 5 1V-1C1.68629 -1 -1 1.68629 -1 5H1ZM1 56V5H-1V56H1ZM5 60C2.79086 60 1 58.2091 1 56H-1C-1 59.3137 1.68629 62 5 62V60ZM44 60H5V62H44V60ZM48 56C48 58.2091 46.2091 60 44 60V62C47.3137 62 50 59.3137 50 56H48ZM48 11V56H50V11H48ZM49 10H39.1058V12H49V10ZM40.1058 11V0H38.1058V11H40.1058ZM5 1H39.1058V-1H5V1Z"
     fill="#383838"
     mask="url(#path-2-inside-1)"
     id="path9"
     style="stroke:none" />
  <g
     id="g872"
     transform="translate(0,-8.3904051)">
    <circle
       style="fill:#383838;fill-opacity:1;stroke:#383838;stroke-width:0.38554;stroke-linejoin:bevel;paint-order:stroke fill markers"
       id="path855"
       cx="30.37735"
       cy="23.818502"
       r="2.7469234" />
    <path
       sodipodi:type="star"
       style="fill:#383838;fill-opacity:1;stroke:#383838;stroke-width:1.6451;stroke-linejoin:bevel;paint-order:stroke fill markers"
       id="path857"
       sodipodi:sides="3"
       sodipodi:cx="18.896626"
       sodipodi:cy="34.710678"
       sodipodi:r1="10.917078"
       sodipodi:r2="5.458539"
       sodipodi:arg1="0.52359878"
       sodipodi:arg2="1.5707963"
       inkscape:flatsided="false"
       inkscape:rounded="0"
       inkscape:randomized="0"
       inkscape:transform-center-y="-2.2494626"
       d="m 28.351092,40.169217 -9.454466,0 -9.4544674,0 4.7272334,-8.187808 4.727234,-8.187809 4.727233,8.187808 z"
       transform="matrix(1,0,0,0.82419956,0,7.1166047)" />
    <path
       sodipodi:type="star"
       style="fill:#383838;fill-opacity:1;stroke:#383838;stroke-width:0.997;stroke-linejoin:bevel;paint-order:stroke fill markers"
       id="path859"
       sodipodi:sides="3"
       sodipodi:cx="34.108662"
       sodipodi:cy="37.173042"
       sodipodi:r1="6.6162219"
       sodipodi:r2="3.308111"
       sodipodi:arg1="0.52359878"
       sodipodi:arg2="1.5707963"
       inkscape:flatsided="false"
       inkscape:rounded="0"
       inkscape:randomized="0"
       inkscape:transform-center-y="-1.3632717"
       d="m 39.838478,40.481153 -5.729816,0 -5.729817,0 2.864908,-4.962166 2.864909,-4.962167 2.864908,4.962167 z"
       transform="matrix(1,0,0,0.82419956,0,7.1166047)" />
  </g>
  <text
     xml:space="preserve"
     style="font-style:normal;font-weight:normal;font-size:18.6934px;line-height:1.25;font-family:sans-serif;letter-spacing:0px;word-spacing:0px;display:none;fill:#293133;fill-opacity:1;stroke:none;stroke-width:0.467336"
     x="10.114845"
     y="53.141815"
     id="text873"><tspan
       sodipodi:role="line"
       id="tspan871"
       x="0"
       y="0"
       style="fill:#293133;stroke-width:0.467336">JPG</tspan></text>
  <g
     aria-label="JPEG"
     id="text977"
     style="font-style:normal;font-weight:normal;font-size:18.6934px;line-height:1.25;font-family:sans-serif;letter-spacing:0px;word-spacing:0px;display:inline;fill:#383838;fill-opacity:1;stroke:none;stroke-width:0.467336">
    <path
       d="m 6.0439187,39.514254 h 1.8437826 v 12.678287 q 0,2.464462 -0.9401466,3.578033 -0.9310189,1.113572 -3.0029924,1.113572 h -0.702828 v -1.551698 h 0.5750411 q 1.2231033,0 1.7251233,-0.684573 0.50202,-0.684573 0.50202,-2.455334 z"
       style="fill:#383838;stroke-width:0.467336;fill-opacity:1"
       id="path1039" />
    <path
       d="m 13.400794,41.029442 v 5.120604 h 2.318419 q 1.286997,0 1.989825,-0.666318 0.702828,-0.666317 0.702828,-1.898548 0,-1.223103 -0.702828,-1.889421 -0.702828,-0.666317 -1.989825,-0.666317 z m -1.843783,-1.515188 h 4.162202 q 2.291037,0 3.459375,1.040551 1.177465,1.031422 1.177465,3.030375 0,2.017207 -1.177465,3.04863 -1.168338,1.031423 -3.459375,1.031423 h -2.318419 v 5.476582 h -1.843783 z"
       style="fill:#383838;stroke-width:0.467336;fill-opacity:1"
       id="path1041" />
    <path
       d="m 22.829641,39.514254 h 8.616489 v 1.551698 h -6.772706 v 4.034415 h 6.48975 v 1.551699 h -6.48975 v 4.938051 h 6.937004 v 1.551698 h -8.780787 z"
       style="fill:#383838;stroke-width:0.467336;fill-opacity:1"
       id="path1043" />
    <path
       d="m 43.932738,51.197629 v -3.660183 h -3.01212 v -1.515187 h 4.837648 v 5.850815 q -1.067934,0.757594 -2.354931,1.150082 -1.286996,0.383361 -2.747418,0.383361 -3.194673,0 -5.001945,-1.862038 -1.798144,-1.871166 -1.798144,-5.202753 0,-3.340715 1.798144,-5.202753 1.807272,-1.871165 5.001945,-1.871165 1.332635,0 2.528355,0.328595 1.204848,0.328595 2.218016,0.967529 v 1.962442 q -1.022296,-0.867125 -2.172378,-1.305252 -1.150082,-0.438127 -2.418823,-0.438127 -2.500973,0 -3.760587,1.396529 -1.250486,1.396528 -1.250486,4.162202 0,2.756546 1.250486,4.153075 1.259614,1.396528 3.760587,1.396528 0.976657,0 1.743378,-0.164297 0.766722,-0.173426 1.378273,-0.529403 z"
       style="fill:#383838;stroke-width:0.467336;fill-opacity:1"
       id="path1045" />
  </g>
</svg>
