<?xml version="1.0" encoding="UTF-8" standalone="no"?>
<svg
   xmlns:dc="http://purl.org/dc/elements/1.1/"
   xmlns:cc="http://creativecommons.org/ns#"
   xmlns:rdf="http://www.w3.org/1999/02/22-rdf-syntax-ns#"
   xmlns:svg="http://www.w3.org/2000/svg"
   xmlns="http://www.w3.org/2000/svg"
   xmlns:sodipodi="http://sodipodi.sourceforge.net/DTD/sodipodi-0.dtd"
   xmlns:inkscape="http://www.inkscape.org/namespaces/inkscape"
   width="49"
   height="61"
   viewBox="0 0 49 61"
   fill="none"
   version="1.1"
   id="svg13"
   sodipodi:docname="presentation.svg"
   inkscape:version="1.0.2 (e86c870879, 2021-01-15)">
  <metadata
     id="metadata19">
    <rdf:RDF>
      <cc:Work
         rdf:about="">
        <dc:format>image/svg+xml</dc:format>
        <dc:type
           rdf:resource="http://purl.org/dc/dcmitype/StillImage" />
        <dc:title />
      </cc:Work>
    </rdf:RDF>
  </metadata>
  <defs
     id="defs17">
    <linearGradient
       id="SVGID_1_"
       gradientUnits="userSpaceOnUse"
       x1="170.6454"
       y1="1450.1008"
       x2="811.65472"
       y2="339.8992"
       gradientTransform="matrix(1,0,0,-1,304.4091,947.16778)">
      <stop
         offset="0"
         style="stop-color:#CA4C28"
         id="stop18" />
      <stop
         offset="0.5"
         style="stop-color:#C5401E"
         id="stop20" />
      <stop
         offset="1"
         style="stop-color:#B62F14"
         id="stop22" />
    </linearGradient>
  </defs>
  <sodipodi:namedview
     pagecolor="#ffffff"
     bordercolor="#666666"
     borderopacity="1"
     objecttolerance="10"
     gridtolerance="10"
     guidetolerance="10"
     inkscape:pageopacity="0"
     inkscape:pageshadow="2"
     inkscape:window-width="1600"
     inkscape:window-height="831"
     id="namedview15"
     showgrid="false"
     inkscape:zoom="3.6804328"
     inkscape:cx="16.531472"
     inkscape:cy="27.592947"
     inkscape:window-x="0"
     inkscape:window-y="0"
     inkscape:window-maximized="1"
     inkscape:current-layer="svg13"
     inkscape:document-rotation="0" />
  <path
     d="M5 0.5H44C46.4853 0.5 48.5 2.51472 48.5 5V56C48.5 58.4853 46.4853 60.5 44 60.5H5C2.51472 60.5 0.5 58.4853 0.5 56V5C0.5 2.51472 2.51472 0.5 5 0.5Z"
     fill="#CCCCCC"
     stroke="#383838"
     id="path2" />
  <mask
     id="path-2-inside-1"
     fill="white">
    <path
       fill-rule="evenodd"
       clip-rule="evenodd"
       d="M5 0C2.23858 0 0 2.23858 0 5V56C0 58.7614 2.23858 61 5 61H44C46.7614 61 49 58.7614 49 56V11H39.1058V0H5Z"
       id="path4" />
  </mask>
  <path
     fill-rule="evenodd"
     clip-rule="evenodd"
     d="M5 0C2.23858 0 0 2.23858 0 5V56C0 58.7614 2.23858 61 5 61H44C46.7614 61 49 58.7614 49 56V11H39.1058V0H5Z"
     fill="#B13838"
     id="path7"
     style="fill:#c74422;fill-opacity:1" />
  <path
     d="M49 11H50V10H49V11ZM39.1058 11H38.1058V12H39.1058V11ZM39.1058 0H40.1058V-1H39.1058V0ZM1 5C1 2.79086 2.79086 1 5 1V-1C1.68629 -1 -1 1.68629 -1 5H1ZM1 56V5H-1V56H1ZM5 60C2.79086 60 1 58.2091 1 56H-1C-1 59.3137 1.68629 62 5 62V60ZM44 60H5V62H44V60ZM48 56C48 58.2091 46.2091 60 44 60V62C47.3137 62 50 59.3137 50 56H48ZM48 11V56H50V11H48ZM49 10H39.1058V12H49V10ZM40.1058 11V0H38.1058V11H40.1058ZM5 1H39.1058V-1H5V1Z"
     fill="#383838"
     mask="url(#path-2-inside-1)"
     id="path9"
     style="stroke:none" />
  <g
     aria-label="P"
     id="text852"
     style="font-style:normal;font-weight:normal;font-size:40px;line-height:1.25;font-family:sans-serif;letter-spacing:0px;word-spacing:0px;fill:#f0f0f0;fill-opacity:1;stroke:none">
    <path
       d="m 12.498047,15.919922 h 12.480469 q 5.566406,0 8.535156,2.480469 2.988281,2.460937 2.988281,7.03125 0,4.589843 -2.988281,7.070312 -2.96875,2.460938 -8.535156,2.460938 h -4.960938 v 10.117187 h -7.519531 z m 7.519531,5.449219 v 8.144531 h 4.160156 q 2.1875,0 3.378907,-1.054688 1.191406,-1.074218 1.191406,-3.027343 0,-1.953125 -1.191406,-3.007813 -1.191407,-1.054687 -3.378907,-1.054687 z"
       style="font-style:normal;font-variant:normal;font-weight:bold;font-stretch:normal;font-size:40px;font-family:sans-serif;-inkscape-font-specification:'sans-serif, Bold';font-variant-ligatures:normal;font-variant-caps:normal;font-variant-numeric:normal;font-variant-east-asian:normal;fill:#f0f0f0;fill-opacity:1"
       id="path840" />
  </g>
</svg>
