<?xml version="1.0" encoding="UTF-8" standalone="no"?>
<svg
   xmlns:dc="http://purl.org/dc/elements/1.1/"
   xmlns:cc="http://creativecommons.org/ns#"
   xmlns:rdf="http://www.w3.org/1999/02/22-rdf-syntax-ns#"
   xmlns:svg="http://www.w3.org/2000/svg"
   xmlns="http://www.w3.org/2000/svg"
   xmlns:sodipodi="http://sodipodi.sourceforge.net/DTD/sodipodi-0.dtd"
   xmlns:inkscape="http://www.inkscape.org/namespaces/inkscape"
   width="49"
   height="61"
   viewBox="0 0 49 61"
   fill="none"
   version="1.1"
   id="svg13"
   sodipodi:docname="spreadsheet.svg"
   inkscape:version="1.0.2 (e86c870879, 2021-01-15)">
  <metadata
     id="metadata19">
    <rdf:RDF>
      <cc:Work
         rdf:about="">
        <dc:format>image/svg+xml</dc:format>
        <dc:type
           rdf:resource="http://purl.org/dc/dcmitype/StillImage" />
        <dc:title />
      </cc:Work>
    </rdf:RDF>
  </metadata>
  <defs
     id="defs17" />
  <sodipodi:namedview
     pagecolor="#ffffff"
     bordercolor="#666666"
     borderopacity="1"
     objecttolerance="10"
     gridtolerance="10"
     guidetolerance="10"
     inkscape:pageopacity="0"
     inkscape:pageshadow="2"
     inkscape:window-width="1600"
     inkscape:window-height="831"
     id="namedview15"
     showgrid="false"
     inkscape:zoom="2.602459"
     inkscape:cx="38.950966"
     inkscape:cy="70.57362"
     inkscape:window-x="0"
     inkscape:window-y="0"
     inkscape:window-maximized="1"
     inkscape:current-layer="svg13"
     inkscape:document-rotation="0" />
  <path
     d="M5 0.5H44C46.4853 0.5 48.5 2.51472 48.5 5V56C48.5 58.4853 46.4853 60.5 44 60.5H5C2.51472 60.5 0.5 58.4853 0.5 56V5C0.5 2.51472 2.51472 0.5 5 0.5Z"
     fill="#CCCCCC"
     stroke="#383838"
     id="path2" />
  <mask
     id="path-2-inside-1"
     fill="white">
    <path
       fill-rule="evenodd"
       clip-rule="evenodd"
       d="M5 0C2.23858 0 0 2.23858 0 5V56C0 58.7614 2.23858 61 5 61H44C46.7614 61 49 58.7614 49 56V11H39.1058V0H5Z"
       id="path4" />
  </mask>
  <path
     fill-rule="evenodd"
     clip-rule="evenodd"
     d="M 5,0 C 2.23858,0 0,2.23858 0,5 v 51 c 0,2.7614 2.23858,5 5,5 h 39 c 2.7614,0 5,-2.2386 5,-5 V 11 H 39.1058 V 0 Z"
     fill="#B13838"
     id="path7"
     style="opacity:0.999;fill:#70bc1f" />
  <path
     d="M49 11H50V10H49V11ZM39.1058 11H38.1058V12H39.1058V11ZM39.1058 0H40.1058V-1H39.1058V0ZM1 5C1 2.79086 2.79086 1 5 1V-1C1.68629 -1 -1 1.68629 -1 5H1ZM1 56V5H-1V56H1ZM5 60C2.79086 60 1 58.2091 1 56H-1C-1 59.3137 1.68629 62 5 62V60ZM44 60H5V62H44V60ZM48 56C48 58.2091 46.2091 60 44 60V62C47.3137 62 50 59.3137 50 56H48ZM48 11V56H50V11H48ZM49 10H39.1058V12H49V10ZM40.1058 11V0H38.1058V11H40.1058ZM5 1H39.1058V-1H5V1Z"
     fill="#383838"
     mask="url(#path-2-inside-1)"
     id="path9"
     style="stroke:none" />
  <g
     aria-label="S"
     id="text846"
     style="font-style:normal;font-weight:normal;font-size:85.9393px;line-height:1.25;font-family:sans-serif;letter-spacing:0px;word-spacing:0px;opacity:0.999;fill:#f0f0f0;fill-opacity:1;stroke:none;stroke-width:2.14848">
    <path
       d="m 32.741441,18.7421 v 5.304063 q -2.064557,-0.923175 -4.028403,-1.393155 -1.963846,-0.469981 -3.709487,-0.469981 -2.316332,0 -3.424142,0.637831 -1.107811,0.63783 -1.107811,1.980631 0,1.007101 0.73854,1.577791 0.755326,0.553905 2.719172,0.956746 l 2.752742,0.553905 q 4.179468,0.83925 5.941894,2.551322 1.762426,1.712071 1.762426,4.867653 0,4.145897 -2.467397,6.176884 -2.450611,2.014201 -7.5029,2.014201 -2.383471,0 -4.783728,-0.453195 -2.400256,-0.453196 -4.800513,-1.342801 v -5.455129 q 2.400257,1.275661 4.632663,1.930276 2.249192,0.637831 4.330533,0.637831 2.114911,0 3.239507,-0.704971 1.124596,-0.70497 1.124596,-2.014201 0,-1.174951 -0.772111,-1.812781 -0.755325,-0.63783 -3.038087,-1.141381 l -2.500966,-0.553905 q -3.759843,-0.805681 -5.505484,-2.568107 -1.728856,-1.762426 -1.728856,-4.750158 0,-3.743057 2.417042,-5.757258 2.417041,-2.014202 6.948994,-2.014202 2.064556,0 4.246608,0.318916 2.182051,0.30213 4.515168,0.923175 z"
       style="font-style:normal;font-variant:normal;font-weight:bold;font-stretch:normal;font-size:34.3757px;font-family:sans-serif;-inkscape-font-specification:'sans-serif, Bold';font-variant-ligatures:normal;font-variant-caps:normal;font-variant-numeric:normal;font-variant-east-asian:normal;fill:#f0f0f0;fill-opacity:1;stroke-width:2.14848"
       id="path836" />
  </g>
</svg>
