<svg width="16" height="14" viewBox="0 0 16 14" fill="none" xmlns="http://www.w3.org/2000/svg">
<path d="M0.925165 3.20414C0.756024 2.28265 1.46364 1.43333 2.40052 1.43333H12.6415C13.6143 1.43333 14.3298 2.34501 14.0985 3.28992L11.8796 12.3566C11.7153 13.0278 11.1136 13.5 10.4226 13.5H4.06473C3.34075 13.5 2.72008 12.9829 2.58938 12.2708L0.925165 3.20414Z" fill="#383838" stroke="#383838"/>
<path d="M13.5 1.86667C13.5 1.87185 13.4925 1.98663 13.2083 2.1796C12.9411 2.36105 12.5215 2.54424 11.9582 2.70602C10.8382 3.02765 9.26186 3.23333 7.5 3.23333C5.73814 3.23333 4.16178 3.02765 3.04182 2.70602C2.47846 2.54424 2.05892 2.36105 1.79167 2.1796C1.50747 1.98663 1.5 1.87185 1.5 1.86667C1.5 1.86148 1.50747 1.7467 1.79167 1.55374C2.05892 1.37228 2.47846 1.1891 3.04182 1.02731C4.16178 0.70568 5.73814 0.5 7.5 0.5C9.26186 0.5 10.8382 0.70568 11.9582 1.02731C12.5215 1.1891 12.9411 1.37228 13.2083 1.55374C13.4925 1.7467 13.5 1.86148 13.5 1.86667Z" fill="#383838" stroke="#383838"/>
<rect x="3" y="2" width="2" height="2" rx="1" fill="white"/>
<rect x="4" y="3" width="2" height="2" rx="1" fill="white"/>
<rect x="8" y="2" width="2" height="2" rx="1" fill="white"/>
<path d="M9.2859 3.53623C8.76609 2.10675 10.1267 0.708893 11.5697 1.18989C12.3992 1.4664 12.9144 2.29417 12.7963 3.16053L12.7499 3.50076C12.6328 4.35966 11.8992 5 11.0323 5C10.3034 5 9.65236 4.54398 9.40325 3.85894L9.2859 3.53623Z" fill="white"/>
<rect x="7" y="3" width="2" height="2" rx="1" fill="white"/>
<path d="M2.125 3.03265C2.81008 3.69477 8 4.5 13.5 3L10.7744 12H3.79419C3.79419 12 1.43992 2.37052 2.125 3.03265Z" fill="#383838"/>
</svg>
