<?xml version="1.0" encoding="UTF-8" standalone="no"?>
<svg
   xmlns:dc="http://purl.org/dc/elements/1.1/"
   xmlns:cc="http://creativecommons.org/ns#"
   xmlns:rdf="http://www.w3.org/1999/02/22-rdf-syntax-ns#"
   xmlns:svg="http://www.w3.org/2000/svg"
   xmlns="http://www.w3.org/2000/svg"
   xmlns:sodipodi="http://sodipodi.sourceforge.net/DTD/sodipodi-0.dtd"
   xmlns:inkscape="http://www.inkscape.org/namespaces/inkscape"
   width="49"
   height="61"
   viewBox="0 0 49 61"
   fill="none"
   version="1.1"
   id="svg13"
   sodipodi:docname="zip.svg"
   inkscape:version="1.0.2 (e86c870879, 2021-01-15)">
  <metadata
     id="metadata19">
    <rdf:RDF>
      <cc:Work
         rdf:about="">
        <dc:format>image/svg+xml</dc:format>
        <dc:type
           rdf:resource="http://purl.org/dc/dcmitype/StillImage" />
        <dc:title />
      </cc:Work>
    </rdf:RDF>
  </metadata>
  <defs
     id="defs17" />
  <sodipodi:namedview
     pagecolor="#ffffff"
     bordercolor="#666666"
     borderopacity="1"
     objecttolerance="10"
     gridtolerance="10"
     guidetolerance="10"
     inkscape:pageopacity="0"
     inkscape:pageshadow="2"
     inkscape:window-width="1600"
     inkscape:window-height="831"
     id="namedview15"
     showgrid="false"
     inkscape:zoom="3.6804328"
     inkscape:cx="10.790537"
     inkscape:cy="38.281788"
     inkscape:window-x="0"
     inkscape:window-y="0"
     inkscape:window-maximized="1"
     inkscape:current-layer="svg13"
     inkscape:document-rotation="0" />
  <path
     d="M5 0.5H44C46.4853 0.5 48.5 2.51472 48.5 5V56C48.5 58.4853 46.4853 60.5 44 60.5H5C2.51472 60.5 0.5 58.4853 0.5 56V5C0.5 2.51472 2.51472 0.5 5 0.5Z"
     fill="#CCCCCC"
     stroke="#383838"
     id="path2" />
  <mask
     id="path-2-inside-1"
     fill="white">
    <path
       fill-rule="evenodd"
       clip-rule="evenodd"
       d="M5 0C2.23858 0 0 2.23858 0 5V56C0 58.7614 2.23858 61 5 61H44C46.7614 61 49 58.7614 49 56V11H39.1058V0H5Z"
       id="path4" />
  </mask>
  <path
     fill-rule="evenodd"
     clip-rule="evenodd"
     d="M5 0C2.23858 0 0 2.23858 0 5V56C0 58.7614 2.23858 61 5 61H44C46.7614 61 49 58.7614 49 56V11H39.1058V0H5Z"
     fill="#B13838"
     id="path7"
     style="fill:#feba35" />
  <path
     d="M49 11H50V10H49V11ZM39.1058 11H38.1058V12H39.1058V11ZM39.1058 0H40.1058V-1H39.1058V0ZM1 5C1 2.79086 2.79086 1 5 1V-1C1.68629 -1 -1 1.68629 -1 5H1ZM1 56V5H-1V56H1ZM5 60C2.79086 60 1 58.2091 1 56H-1C-1 59.3137 1.68629 62 5 62V60ZM44 60H5V62H44V60ZM48 56C48 58.2091 46.2091 60 44 60V62C47.3137 62 50 59.3137 50 56H48ZM48 11V56H50V11H48ZM49 10H39.1058V12H49V10ZM40.1058 11V0H38.1058V11H40.1058ZM5 1H39.1058V-1H5V1Z"
     fill="#383838"
     mask="url(#path-2-inside-1)"
     id="path9"
     style="stroke:none" />
  <g
     aria-label="ZIP"
     id="text846"
     style="font-style:normal;font-weight:normal;font-size:40px;line-height:1.25;font-family:sans-serif;letter-spacing:0px;word-spacing:0px;fill:#f0f0f0;fill-opacity:1;stroke:none">
    <path
       d="m 10.726563,24.667969 h 9.804687 v 1.820312 l -6.257812,7.570313 h 6.437499 v 2.273437 H 10.546875 v -1.820312 l 6.257812,-7.570313 h -6.078124 z"
       style="font-style:normal;font-variant:normal;font-weight:bold;font-stretch:normal;font-size:16px;font-family:sans-serif;-inkscape-font-specification:'sans-serif, Bold';font-variant-ligatures:normal;font-variant-caps:normal;font-variant-numeric:normal;font-variant-east-asian:normal;fill:#f0f0f0;fill-opacity:1"
       id="path846" />
    <path
       d="M 22.898437,24.667969 H 25.90625 V 36.332031 H 22.898437 Z"
       style="font-style:normal;font-variant:normal;font-weight:bold;font-stretch:normal;font-size:16px;font-family:sans-serif;-inkscape-font-specification:'sans-serif, Bold';font-variant-ligatures:normal;font-variant-caps:normal;font-variant-numeric:normal;font-variant-east-asian:normal;fill:#f0f0f0;fill-opacity:1"
       id="path848" />
    <path
       d="m 28.851562,24.667969 h 4.992188 q 2.226562,0 3.414062,0.992187 1.195313,0.984375 1.195313,2.8125 0,1.835938 -1.195313,2.828125 -1.1875,0.984375 -3.414062,0.984375 h -1.984375 v 4.046875 h -3.007813 z m 3.007813,2.179687 v 3.257813 h 1.664062 q 0.875,0 1.351563,-0.421875 0.476562,-0.429688 0.476562,-1.210938 0,-0.78125 -0.476562,-1.203125 -0.476563,-0.421875 -1.351563,-0.421875 z"
       style="font-style:normal;font-variant:normal;font-weight:bold;font-stretch:normal;font-size:16px;font-family:sans-serif;-inkscape-font-specification:'sans-serif, Bold';font-variant-ligatures:normal;font-variant-caps:normal;font-variant-numeric:normal;font-variant-east-asian:normal;fill:#f0f0f0;fill-opacity:1"
       id="path850" />
  </g>
  <rect
     style="fill:none;fill-opacity:1;stroke:#fe9e32;stroke-width:2.91578;stroke-linejoin:bevel;stroke-miterlimit:4;stroke-dasharray:2.91578, 5.83157000000000014;stroke-dashoffset:0;paint-order:stroke fill markers"
     id="rect922"
     width="44.158619"
     height="3.764451"
     x="2.4473703"
     y="45.333687" />
  <rect
     style="fill:#fe9e32;fill-opacity:1;stroke:none;stroke-width:0.997473;stroke-linejoin:bevel;paint-order:stroke fill markers"
     id="rect920"
     width="47.130581"
     height="3.7337511"
     x="0.93470955"
     y="41.615517" />
  <rect
     style="fill:#fe9e32;fill-opacity:1;stroke:none;stroke-width:0.997473;stroke-linejoin:bevel;paint-order:stroke fill markers"
     id="rect924"
     width="47.130581"
     height="3.7337511"
     x="0.93470955"
     y="49.127281" />
</svg>
